<?xml version="1.0" encoding="UTF-8" standalone="no"?>
<!-- Created with Inkscape (http://www.inkscape.org/) -->

<svg
   xmlns:dc="http://purl.org/dc/elements/1.1/"
   xmlns:cc="http://creativecommons.org/ns#"
   xmlns:rdf="http://www.w3.org/1999/02/22-rdf-syntax-ns#"
   xmlns:svg="http://www.w3.org/2000/svg"
   xmlns="http://www.w3.org/2000/svg"
   version="1.1"
   width="279.85095"
   height="117.21976"
   id="svg4783">
  <defs
     id="defs4785" />
  <metadata
     id="metadata4788">
    <rdf:RDF>
      <cc:Work
         rdf:about="">
        <dc:format>image/svg+xml</dc:format>
        <dc:type
           rdf:resource="http://purl.org/dc/dcmitype/StillImage" />
        <dc:title></dc:title>
      </cc:Work>
    </rdf:RDF>
  </metadata>
  <g
     transform="translate(1002.7826,-376.60945)"
     id="layer1">
    <g
       transform="matrix(1.25,0,0,-1.25,-981.44917,429.87748)"
       id="g400"
       style="fill:#000000;fill-opacity:1">
      <path
         d="m 0,0 c -0.125,-0.093 -0.573,-0.686 -1.277,-0.686 -0.902,0 -1.141,0.463 -1.089,1.247 0.067,1.018 0.84,1.184 1.618,1.059 C -0.291,1.547 -0.062,1.122 0.032,0.717 0.032,0.717 0.125,0.093 0,0"
         id="path402"
         style="fill:#000000;fill-opacity:1;fill-rule:nonzero;stroke:none" />
    </g>
    <g
       transform="matrix(1.25,0,0,-1.25,-983.04579,430.73448)"
       id="g404"
       style="fill:#000000;fill-opacity:1">
      <path
         d="M 0,0 C 0.177,0 0.343,1.402 0.093,1.715 -0.156,2.024 -0.435,1.246 -0.435,1.061 -0.435,0.873 -0.311,0 0,0"
         id="path406"
         style="fill:#000000;fill-opacity:1;fill-rule:nonzero;stroke:none" />
    </g>
    <g
       transform="matrix(1.25,0,0,-1.25,-971.94967,438.12948)"
       id="g408"
       style="fill:#000000;fill-opacity:1">
      <path
         d="M 0,0 C -2.647,0.247 -5.481,0.372 -6.415,0.217 -7.351,0.062 -8.41,-0.032 -9.779,0.404 -11.15,0.84 -22.954,5.729 -23.826,6.196 c -0.871,0.469 -1.588,1.838 0.655,2.46 2.242,0.624 5.295,1.185 6.103,1.372 0.81,0.188 13.829,4.111 17.909,4.922 4.081,0.809 7.506,1.526 10.091,2.211 2.586,0.684 14.95,4.328 26.038,5.638 11.088,1.306 14.078,1.555 15.883,1.68 1.808,0.125 14.703,-0.249 21.429,-1.555 6.727,-1.312 37.001,-7.103 39.678,-7.54 2.68,-0.435 7.29,-0.56 8.224,-0.56 0.934,0 7.473,-1.619 9.281,-1.869 1.805,-0.251 13.206,-1.059 14.389,-1.245 1.184,-0.188 1.931,-0.249 2.741,-1.494 0.809,-1.247 0.186,-4.673 -0.498,-5.173 -0.341,-0.247 -0.68,-0.161 -1.06,-0.372 -0.382,-0.212 -0.009,-0.868 -1.058,-1.058 -1.371,-0.25 -9.345,-1.434 -11.774,-2.058 -2.43,-0.622 -8.596,-2.677 -9.593,-2.553 -0.996,0.124 -3.238,0.436 -4.173,0.124 -0.934,-0.311 -15.822,-3.425 -18.064,-4.11 -2.243,-0.686 -4.111,-1.87 -5.855,-2.742 -1.745,-0.872 -17.131,-4.795 -28.032,-5.107 -10.901,-0.312 -28.092,3.052 -30.398,3.487 -2.304,0.438 -4.235,0.374 -6.478,0.438 -2.241,0.061 -16.258,2.678 -18.188,2.927 -1.931,0.249 -4.548,0.499 -7.537,1.122 -2.991,0.623 -6.727,1.928 -8.098,2.242 -1.371,0.311 -3.139,1.038 -2.678,1.868 C -4.578,-0.188 -1.028,0.247 0,0"
         id="path410"
         style="fill:#000000;fill-opacity:1;fill-rule:nonzero;stroke:none" />
    </g>
    <g
       transform="matrix(1.25,0,0,-1.25,-925.97129,447.0076)"
       id="g412"
       style="fill:#000000;fill-opacity:1">
      <path
         d="m 0,0 c -1.371,-0.748 -1.495,-1.245 -0.997,-3.737 0.499,-2.492 8.473,-25.538 11.213,-29.277 2.74,-3.738 4.983,-7.101 5.979,-1.371 0.997,5.732 2.368,19.311 1.745,22.052 -0.623,2.741 4.86,6.603 5.481,7.475 0.623,0.873 -6.104,2.988 -9.966,3.488 C 9.593,-0.871 9.219,-0.623 7.849,-0.249 6.479,0.124 0,0 0,0"
         id="path414"
         style="fill:#000000;fill-opacity:1;fill-rule:nonzero;stroke:none" />
    </g>
    <g
       transform="matrix(1.25,0,0,-1.25,-915.22667,409.0096)"
       id="g416"
       style="fill:#000000;fill-opacity:1">
      <path
         d="m 0,0 c 3.364,0.497 6.229,1.245 7.226,2.241 0.996,0.998 11.96,16.072 15.696,19.186 3.738,3.115 6.854,4.61 8.224,4.486 1.371,-0.125 0.373,-9.22 0,-13.33 -0.375,-4.112 0.249,-8.472 1.994,-9.843 1.743,-1.371 3.985,-2.99 5.356,-3.487 1.371,-0.498 -1.371,-0.498 -3.987,-0.125 -2.615,0.375 -5.481,0.623 -4.484,-0.498 C 31.021,-2.491 0,0 0,0"
         id="path418"
         style="fill:#000000;fill-opacity:1;fill-rule:nonzero;stroke:none" />
    </g>
    <g
       transform="matrix(1.25,0,0,-1.25,-824.28305,419.91048)"
       id="g420"
       style="fill:#000000;fill-opacity:1">
      <path
         d="m 0,0 c 1.994,0 5.11,1.994 7.476,3.489 2.367,1.492 5.481,2.74 6.228,2.49 0.749,-0.25 0.374,-3.488 0.998,-4.11 0.623,-0.623 3.239,-2.991 4.734,-3.364 1.495,-0.376 -0.748,-0.376 -1.619,-0.376 -0.873,0 -6.106,0.502 -5.981,-0.122 C 11.961,-2.616 0,0 0,0"
         id="path422"
         style="fill:#000000;fill-opacity:1;fill-rule:nonzero;stroke:none" />
    </g>
    <g
       transform="matrix(1.25,0,0,-1.25,-818.51942,438.44198)"
       id="g424"
       style="fill:#000000;fill-opacity:1">
      <path
         d="m 0,0 c 1.868,-0.499 8.597,-5.107 10.34,-5.855 1.743,-0.749 4.859,-1.869 3.738,0.997 -1.122,2.864 0.995,5.108 2.491,5.73 1.496,0.624 0.373,1.245 -0.749,1.245 C 14.701,2.117 9.966,1.743 9.093,1.619 8.222,1.496 0,0 0,0"
         id="path426"
         style="fill:#000000;fill-opacity:1;fill-rule:nonzero;stroke:none" />
    </g>
    <g
       transform="matrix(1.25,0,0,-1.25,-851.53343,446.07373)"
       id="g428"
       style="fill:#000000;fill-opacity:1">
      <path
         d="m 0,0 c -0.232,-0.849 7.724,-4.235 10.589,-4.982 2.865,-0.748 3.862,0.125 4.11,1.495 0.251,1.37 2.992,4.234 3.863,5.108 0.874,0.871 -0.497,0.871 -0.497,0.871 0,0 4.003,0.491 4.484,0.623 1.37,0.373 0.997,1.246 -0.498,1.246 -1.495,0 -9.344,-0.746 -9.344,-0.746 C 12.707,3.615 0.747,2.742 0,0"
         id="path430"
         style="fill:#000000;fill-opacity:1;fill-rule:nonzero;stroke:none" />
    </g>
    <g
       transform="matrix(1.25,0,0,-1.25,-792.67043,424.8946)"
       id="g432"
       style="fill:#000000;fill-opacity:1">
      <path
         d="m 0,0 c 0.874,0.377 2.99,0 4.611,0.872 1.618,0.871 27.948,16.34 35.132,19.934 8.47,4.235 13.703,4.733 15.323,4.733 1.62,0 0.125,-1.992 -0.623,-3.611 -0.748,-1.62 -3.737,-5.109 -3.737,-6.605 0,-1.062 -3.364,-0.124 -4.361,0.25 -0.996,0.374 -0.498,-0.498 -0.872,-0.998 C 45.1,14.077 30.897,1.247 24.044,-3.862 c -2.604,-1.94 -3.736,-4.36 -2.989,-5.855 1.158,-2.32 4.921,-10.619 5.357,-11.711 0.498,-1.246 2.243,-4.859 0.373,-5.231 -1.868,-0.374 -7.225,2.366 -12.582,7.847 C 11.49,-16.036 5.358,-6.477 2.492,-6.354 -0.374,-6.229 -0.872,-0.372 0,0"
         id="path434"
         style="fill:#000000;fill-opacity:1;fill-rule:nonzero;stroke:none" />
    </g>
  </g>
</svg>
