<?xml version="1.0" encoding="UTF-8" standalone="no"?>
<!-- Created with Inkscape (http://www.inkscape.org/) -->

<svg
   xmlns:dc="http://purl.org/dc/elements/1.1/"
   xmlns:cc="http://creativecommons.org/ns#"
   xmlns:rdf="http://www.w3.org/1999/02/22-rdf-syntax-ns#"
   xmlns:svg="http://www.w3.org/2000/svg"
   xmlns="http://www.w3.org/2000/svg"
   xmlns:sodipodi="http://sodipodi.sourceforge.net/DTD/sodipodi-0.dtd"
   xmlns:inkscape="http://www.inkscape.org/namespaces/inkscape"
   width="484.39603"
   height="183.35452"
   id="svg4667"
   version="1.1"
   inkscape:version="0.48.4 r9939"
   sodipodi:docname="New document 10">
  <defs
     id="defs4669" />
  <sodipodi:namedview
     id="base"
     pagecolor="#ffffff"
     bordercolor="#666666"
     borderopacity="1.0"
     inkscape:pageopacity="0.0"
     inkscape:pageshadow="2"
     inkscape:zoom="0.7"
     inkscape:cx="427.86519"
     inkscape:cy="-114.99405"
     inkscape:document-units="px"
     inkscape:current-layer="layer1"
     showgrid="false"
     fit-margin-top="0"
     fit-margin-left="0"
     fit-margin-right="0"
     fit-margin-bottom="0"
     inkscape:window-width="1366"
     inkscape:window-height="702"
     inkscape:window-x="0"
     inkscape:window-y="27"
     inkscape:window-maximized="1" />
  <metadata
     id="metadata4672">
    <rdf:RDF>
      <cc:Work
         rdf:about="">
        <dc:format>image/svg+xml</dc:format>
        <dc:type
           rdf:resource="http://purl.org/dc/dcmitype/StillImage" />
        <dc:title></dc:title>
      </cc:Work>
    </rdf:RDF>
  </metadata>
  <g
     inkscape:label="Layer 1"
     inkscape:groupmode="layer"
     id="layer1"
     transform="translate(936.48372,-272.1135)">
    <g
       id="g616"
       transform="matrix(1.25,0,0,-1.25,-886.64181,366.3399)"
       style="fill:#000000;fill-opacity:1">
      <path
         inkscape:connector-curvature="0"
         d="m 0,0 c -2.437,0.512 -12.659,-0.021 -17.016,-0.15 -2.177,-0.065 -10.597,0.746 -18.209,6.268 -2.073,1.506 -6.495,4.888 -3.805,7.577 1.43,1.432 9.613,3.921 15.746,6.005 7.91,2.687 26.527,7.107 33.88,8.208 23.881,3.582 67.772,8.508 85.073,8.508 17.302,0 26.782,0.228 46.519,-1.056 19.736,-1.281 41.479,-6.109 50.793,-7.452 16.567,-2.386 32.09,-6.119 37.015,-7.311 6.358,-1.541 11.039,-2.751 13.731,-3.136 2.692,-0.384 24.667,-1.855 26.716,-2.236 2.052,-0.386 4.516,-1.01 4.516,-2.804 0,-1.795 -0.514,-6.538 -0.77,-7.691 -0.255,-1.153 -1.78,-0.634 -4.342,-1.148 -2.565,-0.514 -12.09,-0.747 -16.568,-1.493 -3.559,-0.594 -10.206,-0.83 -13.283,-1.345 -3.078,-0.513 -20.331,-4.388 -25.97,-5.67 -5.639,-1.282 -18.404,-7.16 -21.246,-8.291 -13.679,-5.44 -51.604,-11.196 -79.797,-11.709 -28.195,-0.511 -37.986,0.66 -42.985,1.045 -4.998,0.384 -9.88,0.406 -14.03,1.045 -4.998,0.769 -15.335,2.605 -17.909,2.687 -9.553,0.299 -15.523,1.791 -20.598,3.283 -4.072,1.198 -15.969,5.074 -18.357,5.97 -6.618,2.482 -14.031,4.477 -12.089,7.613 0.544,0.877 4.477,0.893 6.566,1.342 C -4.328,-1.494 0,0 0,0"
         style="fill:#000000;fill-opacity:1;fill-rule:nonzero;stroke:none"
         id="path618" />
    </g>
    <g
       id="g624"
       transform="matrix(1.25,0,0,-1.25,-778.80919,321.37903)"
       style="fill:#000000;fill-opacity:1">
      <path
         inkscape:connector-curvature="0"
         d="m 0,0 c 11.194,0.447 17.209,0.681 19.516,4.525 2.306,3.845 12.686,20.954 20.377,28.258 7.689,7.304 11.791,6.718 12.947,6.54 0.833,-0.127 0.207,-2.351 -0.192,-3.651 C 50.854,29.84 52.795,14.688 54.502,10.483 57,4.333 63.537,2.277 66.166,0.932 69.821,-0.942 60.258,-0.17 58.656,-0.299 57.053,-0.428 61.438,-1.876 62.254,-1.954 63.6,-2.079 60.398,-6.562 54.823,-5.6 49.249,-4.64 0,0 0,0"
         style="fill:#000000;fill-opacity:1;fill-rule:nonzero;stroke:none"
         id="path626" />
    </g>
    <g
       id="g628"
       transform="matrix(1.25,0,0,-1.25,-599.73994,341.67565)"
       style="fill:#000000;fill-opacity:1">
      <path
         inkscape:connector-curvature="0"
         d="m 0,0 c 1.922,-0.127 6.921,2.18 9.099,3.204 2.177,1.025 2.049,0.128 3.716,-1.408 1.666,-1.538 3.459,-3.334 4.229,-3.461 0,0 -0.768,-0.642 -2.051,-0.642 C 13.712,-2.307 0,0 0,0"
         style="fill:#000000;fill-opacity:1;fill-rule:nonzero;stroke:none"
         id="path630" />
    </g>
    <g
       id="g632"
       transform="matrix(1.25,0,0,-1.25,-575.82757,371.75128)"
       style="fill:#000000;fill-opacity:1">
      <path
         inkscape:connector-curvature="0"
         d="M 0,0 C 1.539,-0.383 1.305,5.623 5.672,6.716 7.19,7.098 -9.646,5.786 -10.031,5.53 -10.415,5.273 -1.537,0.384 0,0"
         style="fill:#000000;fill-opacity:1;fill-rule:nonzero;stroke:none"
         id="path634" />
    </g>
    <g
       id="g636"
       transform="matrix(1.25,0,0,-1.25,-549.51294,355.46103)"
       style="fill:#000000;fill-opacity:1">
      <path
         inkscape:connector-curvature="0"
         d="m 0,0 c -0.031,1.812 0.288,5.437 2.008,5.437 4.59,0 6.074,0.02 8.731,2.576 4.683,4.499 17.045,18.584 21.829,22.947 19.029,17.351 38.259,21.464 40.857,21.938 6.717,1.233 4.304,-1.801 3.023,-4.364 -1.281,-2.562 -4.255,-8.955 -4.59,-12.312 -0.117,-1.177 -3.852,1.789 -5.261,1.789 -1.41,0 -2.032,-1.055 -1.903,-1.567 0.128,-0.51 -7.099,-11.19 -8.507,-12.985 -1.411,-1.793 -14.344,-21.84 -15.112,-23.507 -0.41,-0.889 -0.284,-3.25 -0.671,-5.148 -0.34,-1.658 -1.262,-2.834 -0.784,-4.031 1.025,-2.561 3.213,-9.223 4.364,-11.529 1.154,-2.306 4.031,-15.112 6.495,-19.029 0.629,-1.002 0.53,-2.832 -1.904,-2.574 -2.435,0.255 -14.043,4.462 -21.603,12.536 C 19.409,-21.748 8.327,-8.207 7.046,-5.645 5.764,-3.081 0.105,-5.755 0,0"
         style="fill:#000000;fill-opacity:1;fill-rule:nonzero;stroke:none"
         id="path638" />
    </g>
    <g
       id="g640"
       transform="matrix(1.25,0,0,-1.25,-646.77369,380.4549)"
       style="fill:#000000;fill-opacity:1">
      <path
         inkscape:connector-curvature="0"
         d="m 0,0 c 1.409,-0.512 1.786,-0.774 2.819,-1.922 4.089,-4.547 14.536,-7.831 18.632,-8.265 1.33,-0.141 3.301,-0.102 4.71,1.181 1.41,1.279 -3.136,11.939 3.046,15.02 1.148,0.573 2.308,1.795 -0.255,1.667 C 26.388,7.552 25.374,6.834 24.222,6.963 23.067,7.091 0,0 0,0"
         style="fill:#000000;fill-opacity:1;fill-rule:nonzero;stroke:none"
         id="path642" />
    </g>
    <g
       id="g644"
       transform="matrix(1.25,0,0,-1.25,-809.66432,377.09803)"
       style="fill:#000000;fill-opacity:1">
      <path
         inkscape:connector-curvature="0"
         d="m 0,0 c -2.32,-1.267 -2.176,-5.389 -2.051,-6.793 0.768,-8.585 5.657,-25.478 12.706,-36.242 7.55,-11.531 12.699,-16.308 16.418,-18.358 1.309,-0.721 8.123,-2.757 7.612,0.448 -0.514,3.204 -4.441,22.214 -3.732,28.059 0.598,4.925 2.001,13.083 4.179,17.313 2.178,4.228 6.397,7.701 6.909,8.342 0.513,0.64 0.28,2.233 -1.386,3.001 C 38.988,-3.462 19.363,2.079 14.237,2.337 9.111,2.594 2.819,1.537 0,0"
         style="fill:#000000;fill-opacity:1;fill-rule:nonzero;stroke:none"
         id="path646" />
    </g>
  </g>
</svg>
