<?xml version="1.0" encoding="UTF-8" standalone="no"?>
<!-- Created with Inkscape (http://www.inkscape.org/) -->

<svg
   xmlns:dc="http://purl.org/dc/elements/1.1/"
   xmlns:cc="http://creativecommons.org/ns#"
   xmlns:rdf="http://www.w3.org/1999/02/22-rdf-syntax-ns#"
   xmlns:svg="http://www.w3.org/2000/svg"
   xmlns="http://www.w3.org/2000/svg"
   xmlns:sodipodi="http://sodipodi.sourceforge.net/DTD/sodipodi-0.dtd"
   xmlns:inkscape="http://www.inkscape.org/namespaces/inkscape"
   width="351.6514"
   height="138.09395"
   id="svg4548"
   version="1.1"
   inkscape:version="0.48.4 r9939"
   sodipodi:docname="hammerhead.svg">
  <defs
     id="defs4550" />
  <sodipodi:namedview
     id="base"
     pagecolor="#ffffff"
     bordercolor="#666666"
     borderopacity="1.0"
     inkscape:pageopacity="0.0"
     inkscape:pageshadow="2"
     inkscape:zoom="0.98994949"
     inkscape:cx="33.132016"
     inkscape:cy="82.345548"
     inkscape:document-units="px"
     inkscape:current-layer="layer1"
     showgrid="false"
     fit-margin-top="0"
     fit-margin-left="0"
     fit-margin-right="0"
     fit-margin-bottom="0"
     inkscape:window-width="1366"
     inkscape:window-height="702"
     inkscape:window-x="0"
     inkscape:window-y="27"
     inkscape:window-maximized="1" />
  <metadata
     id="metadata4553">
    <rdf:RDF>
      <cc:Work
         rdf:about="">
        <dc:format>image/svg+xml</dc:format>
        <dc:type
           rdf:resource="http://purl.org/dc/dcmitype/StillImage" />
        <dc:title></dc:title>
      </cc:Work>
    </rdf:RDF>
  </metadata>
  <g
     inkscape:label="Layer 1"
     inkscape:groupmode="layer"
     id="layer1"
     transform="translate(-78.460012,-445.12573)">
    <g
       id="g652"
       transform="matrix(1.25,0,0,-1.25,86.595618,516.02515)"
       style="fill:#000000;fill-opacity:1">
      <path
         inkscape:connector-curvature="0"
         d="m 0,0 c 9.063,3.467 20.667,7.021 25.348,8.58 4.679,1.561 16.183,4.68 21.643,5.85 5.459,1.169 21.447,4.484 44.456,3.899 23.007,-0.585 56.153,-6.823 69.413,-8.971 13.258,-2.143 42.894,-7.603 50.304,-9.747 7.41,-2.144 4.68,-5.069 -7.994,-6.825 -6.975,-0.964 -20.042,-2.299 -31.978,-5.46 -6.629,-1.754 -17.93,-1.677 -22.226,-2.728 -9.554,-2.342 -28.204,-5.627 -36.137,-6.89 -17.16,-2.73 -36.202,-1.495 -47.706,1.234 -11.502,2.73 -12.089,1.562 -17.937,2.339 -5.851,0.782 -24.957,5.461 -30.807,8.774 C 11.55,-7.208 -6.629,-2.533 0,0"
         style="fill:#000000;fill-opacity:1;fill-rule:nonzero;stroke:none"
         id="path654" />
    </g>
    <g
       id="g656"
       transform="matrix(1.25,0,0,-1.25,112.85112,527.5169)"
       style="fill:#000000;fill-opacity:1">
      <path
         inkscape:connector-curvature="0"
         d="m 0,0 c -2.386,-0.739 -3.918,-0.823 -4.65,-2.436 -0.734,-1.611 -0.685,-3.267 -0.07,-4.332 0.619,-1.067 3.356,-3.878 1.991,-5.267 -1.925,-1.961 -9.805,-2.573 -12.773,-2.413 -2.971,0.163 -6.87,1.088 -7.974,2.076 -1.1,0.986 -0.779,2.614 -1.479,3.171 -0.699,0.55 -1.834,2.436 -1.98,3.885 -0.251,2.451 0.935,3.434 0.54,4.694 -0.577,1.839 -1.338,3.48 -1.058,5.218 0.28,1.74 1.474,2.295 1.434,3.017 -0.04,0.728 -0.198,2.012 0.311,3.223 0.512,1.214 1.765,2.216 2.104,3.334 0.337,1.116 0.958,1.989 1.849,2.951 0.932,1.002 1.912,1.603 2.447,1.989 0.533,0.381 1.039,1.401 1.936,2.076 0.896,0.669 6.323,2.46 11.318,2.199 3.6,-0.189 4.146,-0.689 4.746,-1.859 0.599,-1.167 -1.266,-2.286 -1.497,-3.721 -0.232,-1.433 -1.237,-3.752 0.178,-4.759 1.415,-1.006 4.485,-2.513 5.889,-2.59 C 4.672,10.381 4.812,1.493 0,0"
         style="fill:#000000;fill-opacity:1;fill-rule:nonzero;stroke:none"
         id="path658" />
    </g>
    <g
       id="g660"
       transform="matrix(1.25,0,0,-1.25,89.637618,542.13115)"
       style="fill:#000000;fill-opacity:1">
      <path
         inkscape:connector-curvature="0"
         d="M 0,0 C 0.01,-0.411 0.089,-1.259 0.273,-1.273 0.499,-1.295 0.69,-0.425 0.679,-0.059 0.663,0.389 0.54,0.954 0.331,1.156 0.158,1.074 -0.005,0.354 0,0"
         style="fill:#000000;fill-opacity:1;fill-rule:nonzero;stroke:none"
         id="path662" />
    </g>
    <g
       id="g664"
       transform="matrix(1.25,0,0,-1.25,88.166743,542.3679)"
       style="fill:#000000;fill-opacity:1">
      <path
         inkscape:connector-curvature="0"
         d="m 0,0 c 0.168,-1.264 1.345,-1.762 2.275,-1.129 0.79,0.535 0.891,1.92 0.106,2.5 C 1.458,2.053 -0.147,1.128 0,0"
         style="fill:#000000;fill-opacity:1;fill-rule:nonzero;stroke:none"
         id="path666" />
    </g>
    <g
       id="g668"
       transform="matrix(1.25,0,0,-1.25,165.07461,496.76978)"
       style="fill:#000000;fill-opacity:1">
      <path
         inkscape:connector-curvature="0"
         d="m 0,0 c 4.681,0.584 7.995,1.56 10.335,4.483 2.338,2.927 9.66,19.362 14.233,26.617 2.828,4.484 6.298,7.793 7.199,8.548 2.705,2.271 5.232,2.711 4.207,-1.822 C 34.609,31.782 31.406,12.168 36.463,7.41 39.776,4.288 43.482,1.948 47.382,1.56 51.282,1.17 38.413,0.975 38.413,0.975 L 0,0 z"
         style="fill:#000000;fill-opacity:1;fill-rule:nonzero;stroke:none"
         id="path670" />
    </g>
    <g
       id="g672"
       transform="matrix(1.25,0,0,-1.25,290.83761,505.54541)"
       style="fill:#000000;fill-opacity:1">
      <path
         inkscape:connector-curvature="0"
         d="m 0,0 c 2.785,0.262 5.571,7.801 11.142,9.36 4.786,1.34 1.16,-4.245 2.507,-6.76 1.114,-2.079 6.684,-3.899 9.19,-4.679 2.508,-0.779 -3.899,-0.779 -5.29,-0.779 C 16.154,-2.858 0,0 0,0"
         style="fill:#000000;fill-opacity:1;fill-rule:nonzero;stroke:none"
         id="path674" />
    </g>
    <g
       id="g676"
       transform="matrix(1.25,0,0,-1.25,291.64999,533.15165)"
       style="fill:#000000;fill-opacity:1">
      <path
         inkscape:connector-curvature="0"
         d="m 0,0 c 3.12,-3.365 8.205,-8.515 11.732,-9.371 2.99,-0.726 1.528,0.536 0.52,1.53 -1.162,1.147 -1.885,4.679 -1.105,5.847 0.654,0.98 1.852,0.486 4.874,1.657 1.673,0.649 2.831,3.197 3.802,3.412 0.328,0.073 1.151,0.647 -0.388,0.584 C 16.858,3.557 11.18,2.755 11.18,2.755 L 0,0 z"
         style="fill:#000000;fill-opacity:1;fill-rule:nonzero;stroke:none"
         id="path678" />
    </g>
    <g
       id="g680"
       transform="matrix(1.25,0,0,-1.25,247.77674,538.14315)"
       style="fill:#000000;fill-opacity:1">
      <path
         inkscape:connector-curvature="0"
         d="m 0,0 c -0.507,-1.839 0.467,-3.218 1.549,-4.374 1.085,-1.156 10.657,-6.384 13.388,-6.465 2.73,-0.081 1.484,1.025 0.405,2.744 -1.078,1.718 -2.041,4.218 -0.718,5.754 1.324,1.535 4.693,5.767 5.243,6.312 C 18.123,4.36 12.98,3.497 10.847,3.392 8.715,3.286 0,0 0,0"
         style="fill:#000000;fill-opacity:1;fill-rule:nonzero;stroke:none"
         id="path682" />
    </g>
    <g
       id="g684"
       transform="matrix(1.25,0,0,-1.25,337.89512,514.77515)"
       style="fill:#000000;fill-opacity:1">
      <path
         inkscape:connector-curvature="0"
         d="m 0,0 c 4.11,4.671 36.39,25.751 44.707,30.254 8.318,4.499 19.038,10.667 28.712,11.967 2.023,0.271 -5.263,-3.388 -5.734,-5.516 -0.38,-1.71 -1.681,-5.527 -2.576,-5.045 -0.895,0.485 -3.022,0.975 -3.022,0.975 C 48.732,18.498 41.225,10.797 32.159,3.875 26.31,-0.588 19.67,-6.113 19.289,-7.823 c -0.379,-1.71 7.19,-14.649 9.041,-16.989 1.852,-2.339 0.157,-2.582 -2.802,-1.731 -5.307,1.528 -10.724,4.876 -15.025,9.576 -5.157,5.635 -5.634,9.55 -11.527,10.246 C -6.92,-6.023 0,0 0,0"
         style="fill:#000000;fill-opacity:1;fill-rule:nonzero;stroke:none"
         id="path686" />
    </g>
    <g
       id="g688"
       transform="matrix(1.25,0,0,-1.25,150.45186,533.92803)"
       style="fill:#000000;fill-opacity:1">
      <path
         inkscape:connector-curvature="0"
         d="m 0,0 c -1.548,-0.479 2.471,-12.519 4.291,-17.85 1.715,-5.023 7.571,-19.478 12.867,-21.433 2.341,-0.863 2.73,2.159 2.341,4.748 -0.39,2.59 -0.781,19.426 1.56,23.742 2.338,4.317 2.338,6.045 0,7.339 C 18.718,-2.159 9.749,3.02 0,0"
         style="fill:#000000;fill-opacity:1;fill-rule:nonzero;stroke:none"
         id="path690" />
    </g>
  </g>
</svg>
