<?xml version="1.0" encoding="UTF-8" standalone="no"?>
<!-- Created with Inkscape (http://www.inkscape.org/) -->

<svg
   xmlns:dc="http://purl.org/dc/elements/1.1/"
   xmlns:cc="http://creativecommons.org/ns#"
   xmlns:rdf="http://www.w3.org/1999/02/22-rdf-syntax-ns#"
   xmlns:svg="http://www.w3.org/2000/svg"
   xmlns="http://www.w3.org/2000/svg"
   version="1.1"
   width="318.54739"
   height="134.39943"
   id="svg4879">
  <defs
     id="defs4881" />
  <metadata
     id="metadata4884">
    <rdf:RDF>
      <cc:Work
         rdf:about="">
        <dc:format>image/svg+xml</dc:format>
        <dc:type
           rdf:resource="http://purl.org/dc/dcmitype/StillImage" />
        <dc:title></dc:title>
      </cc:Work>
    </rdf:RDF>
  </metadata>
  <g
     transform="translate(-892.15487,-193.7339)"
     id="layer1">
    <g
       transform="matrix(1.25,0,0,-1.25,911.83001,252.06143)"
       id="g544"
       style="fill:#000000;fill-opacity:1">
      <path
         d="M 0,0 C -0.008,-0.053 -0.012,-0.108 -0.012,-0.166 -0.01,-1.779 2.173,-1.969 2.339,-0.404 2.505,1.148 0.222,1.667 0,0"
         id="path546"
         style="fill:#000000;fill-opacity:1;fill-rule:nonzero;stroke:none" />
    </g>
    <g
       transform="matrix(1.25,0,0,-1.25,917.08876,260.93405)"
       id="g548"
       style="fill:#000000;fill-opacity:1">
      <path
         d="m 0,0 c -4.489,0.374 -9.352,1.87 -11.381,2.564 -2.031,0.696 -5.982,1.761 -8.175,3.955 -0.694,0.694 -0.588,1.175 1.336,2.245 1.002,0.556 5.703,2.694 10.633,4.434 4.522,1.594 9.254,2.836 10.953,3.313 3.046,0.854 21.853,5.502 36.171,7.906 14.321,2.405 27.838,3.793 43.494,1.496 15.655,-2.296 56.848,-8.815 63.261,-9.937 6.411,-1.122 6.625,-2.565 12.344,-3.26 4.285,-0.52 10.096,-0.962 14.104,-1.495 1.074,-0.144 1.376,-0.975 1.496,-1.444 0.481,-1.869 0.535,-6.945 0.108,-7.533 -0.428,-0.588 -0.695,-1.389 -1.39,-1.55 -0.695,-0.16 -13.41,-1.069 -15.227,-1.336 -1.818,-0.267 -5.236,-1.922 -9.672,-1.976 -4.435,-0.054 -15.377,-0.359 -18.727,-0.721 -3.206,-0.348 -7.239,-2.11 -22.628,-3.233 C 91.312,-7.694 69.621,-9.818 49.529,-9.669 34.943,-9.563 30.819,-8.785 24.471,-7.962 18.7,-7.213 8.672,-6.341 -0.801,-2.351 -2.833,-1.495 -2.565,0.16 0,0"
         id="path550"
         style="fill:#000000;fill-opacity:1;fill-rule:nonzero;stroke:none" />
    </g>
    <g
       transform="matrix(1.25,0,0,-1.25,1102.0888,263.2058)"
       id="g552"
       style="fill:#000000;fill-opacity:1">
      <path
         d="m 0,0 c 0.563,-0.962 5.372,-6.33 9.059,-7.052 3.685,-0.72 5.929,-0.56 6.171,0.16 0.24,0.722 -4.328,2.804 -3.447,4.569 0.882,1.762 4.729,1.681 5.77,2.804 1.042,1.123 -5.129,0.322 -5.849,1.042 -0.722,0.721 -4.89,0.641 -4.89,0.641 L 0,0 z"
         id="path554"
         style="fill:#000000;fill-opacity:1;fill-rule:nonzero;stroke:none" />
    </g>
    <g
       transform="matrix(1.25,0,0,-1.25,965.94438,264.50593)"
       id="g556"
       style="fill:#000000;fill-opacity:1">
      <path
         d="m 0,0 c -0.269,-0.513 2.083,-5.37 2.725,-7.455 0.641,-2.083 7.292,-16.669 11.38,-23.242 4.087,-6.573 11.011,-11.029 13.305,-8.736 0.72,0.722 -1.309,3.447 -2.272,7.293 -0.961,3.848 -4.14,16.19 -3.74,21.88 0.4,5.69 5.291,7.695 4.568,8.897 C 24.892,0.429 21.157,0.239 18.032,1.603 14.907,2.965 12.903,4.407 9.698,4.167 6.492,3.927 0.88,1.683 0,0"
         id="path558"
         style="fill:#000000;fill-opacity:1;fill-rule:nonzero;stroke:none" />
    </g>
    <g
       transform="matrix(1.25,0,0,-1.25,1128.738,247.57593)"
       id="g560"
       style="fill:#000000;fill-opacity:1">
      <path
         d="m 0,0 c 1.685,0.062 3.929,-0.081 5.21,0.241 1.284,0.32 1.843,1.763 2.887,3.446 1.04,1.683 13.383,14.266 19.955,19.555 6.572,5.289 23.804,16.75 30.777,18.434 6.971,1.682 7.934,1.042 5.609,-1.042 -2.324,-2.084 -7.613,-7.295 -7.773,-8.256 -0.161,-0.961 1.522,-2.484 1.122,-2.885 -0.402,-0.401 -5.611,-0.56 -6.412,-0.481 -0.802,0.08 0.32,-0.641 0.16,-1.201 -0.16,-0.562 -21.559,-30.697 -23.402,-32.78 -1.845,-2.084 -3.366,-4.969 -2.965,-6.492 0.399,-1.523 3.285,-6.892 4.166,-8.815 0.882,-1.925 2.725,-6.332 3.608,-7.855 0.88,-1.523 2.594,-3.336 0.64,-3.126 -5.21,0.56 -15.329,5.658 -24.204,16.189 C 4.65,-9.458 3.047,-9.217 1.363,-8.335 -0.319,-7.454 -4.327,-0.16 0,0"
         id="path562"
         style="fill:#000000;fill-opacity:1;fill-rule:nonzero;stroke:none" />
    </g>
    <g
       transform="matrix(1.25,0,0,-1.25,982.87376,228.74105)"
       id="g564"
       style="fill:#000000;fill-opacity:1">
      <path
         d="m 0,0 c 6.572,1.441 14.266,2.724 15.469,3.125 1.202,0.401 4.647,6.172 8.736,11.3 4.087,5.131 10.178,11.141 13.544,12.904 3.366,1.763 3.446,-0.321 3.768,-1.683 C 41.836,24.284 40.875,11.22 40.555,8.815 40.233,6.411 41.115,3.606 43.6,1.843 c 2.484,-1.764 4.489,-3.127 5.771,-3.447 1.281,-0.32 -5.852,0.642 -7.854,0.32 -2.003,-0.32 1.361,-1.682 1.361,-1.682 L 0,0 z"
         id="path566"
         style="fill:#000000;fill-opacity:1;fill-rule:nonzero;stroke:none" />
    </g>
    <g
       transform="matrix(1.25,0,0,-1.25,1097.8829,241.16418)"
       id="g568"
       style="fill:#000000;fill-opacity:1">
      <path
         d="m 0,0 c 1.764,-0.081 3.767,-0.161 4.97,0.721 1.201,0.882 5.449,3.286 7.133,3.846 1.683,0.562 3.686,0.081 3.527,-1.361 -0.161,-1.443 0.239,-4.969 4.807,-5.69 4.57,-0.722 -4.487,-0.322 -5.69,-0.562 -1.202,-0.24 1.203,-1.043 1.203,-1.043 L 0,0 z"
         id="path570"
         style="fill:#000000;fill-opacity:1;fill-rule:nonzero;stroke:none" />
    </g>
    <g
       transform="matrix(1.25,0,0,-1.25,1056.9088,266.61043)"
       id="g572"
       style="fill:#000000;fill-opacity:1">
      <path
         d="m 0,0 c 0.881,-1.283 9.617,-8.736 15.628,-9.057 6.011,-0.321 4.089,1.042 4.168,2.083 0.08,1.043 -0.48,3.287 0.48,4.087 0.962,0.802 3.607,1.924 2.966,2.806 C 22.601,0.802 19.155,1.202 16.51,2.003 13.865,2.806 0,0 0,0"
         id="path574"
         style="fill:#000000;fill-opacity:1;fill-rule:nonzero;stroke:none" />
    </g>
    <g
       transform="matrix(1.25,0,0,-1.25,1116.7671,327.84818)"
       id="g692"
       style="fill:#000000;fill-opacity:1">
      <path
         d="M 0,0 C 0.025,-0.021 0.055,-0.041 0.085,-0.059 1.178,-0.772 2.522,0.94 1.508,1.906 0.4,2.96 -1.34,0.965 0,0"
         id="path694"
         style="fill:#000000;fill-opacity:1;fill-rule:nonzero;stroke:none" />
    </g>
  </g>
</svg>
