<?xml version="1.0" encoding="UTF-8" standalone="no"?>
<!-- Created with Inkscape (http://www.inkscape.org/) -->

<svg
   xmlns:dc="http://purl.org/dc/elements/1.1/"
   xmlns:cc="http://creativecommons.org/ns#"
   xmlns:rdf="http://www.w3.org/1999/02/22-rdf-syntax-ns#"
   xmlns:svg="http://www.w3.org/2000/svg"
   xmlns="http://www.w3.org/2000/svg"
   xmlns:sodipodi="http://sodipodi.sourceforge.net/DTD/sodipodi-0.dtd"
   xmlns:inkscape="http://www.inkscape.org/namespaces/inkscape"
   width="302.81076"
   height="88.032059"
   id="svg4973"
   version="1.1"
   inkscape:version="0.48.4 r9939"
   sodipodi:docname="tiger.svg">
  <defs
     id="defs4975" />
  <sodipodi:namedview
     id="base"
     pagecolor="#ffffff"
     bordercolor="#666666"
     borderopacity="1.0"
     inkscape:pageopacity="0.0"
     inkscape:pageshadow="2"
     inkscape:zoom="0.35"
     inkscape:cx="84.861037"
     inkscape:cy="12.989436"
     inkscape:document-units="px"
     inkscape:current-layer="layer1"
     showgrid="false"
     fit-margin-top="0"
     fit-margin-left="0"
     fit-margin-right="0"
     fit-margin-bottom="0"
     inkscape:window-width="771"
     inkscape:window-height="702"
     inkscape:window-x="594"
     inkscape:window-y="27"
     inkscape:window-maximized="0" />
  <metadata
     id="metadata4978">
    <rdf:RDF>
      <cc:Work
         rdf:about="">
        <dc:format>image/svg+xml</dc:format>
        <dc:type
           rdf:resource="http://purl.org/dc/dcmitype/StillImage" />
        <dc:title></dc:title>
      </cc:Work>
    </rdf:RDF>
  </metadata>
  <g
     inkscape:label="Layer 1"
     inkscape:groupmode="layer"
     id="layer1"
     transform="translate(237.11967,-294.06044)">
    <g
       id="g692"
       transform="matrix(1.25,0,0,-1.25,-220.8576,339.6876)"
       style="fill:#000000;fill-opacity:1">
      <path
         inkscape:connector-curvature="0"
         d="M 0,0 C 0.025,-0.021 0.055,-0.041 0.085,-0.059 1.178,-0.772 2.522,0.94 1.508,1.906 0.4,2.96 -1.34,0.965 0,0"
         style="fill:#000000;fill-opacity:1;fill-rule:nonzero;stroke:none"
         id="path694" />
    </g>
    <g
       id="g696"
       transform="matrix(1.25,0,0,-1.25,-216.56372,347.58185)"
       style="fill:#000000;fill-opacity:1">
      <path
         inkscape:connector-curvature="0"
         d="m 0,0 c -1.913,0.586 -3.916,0.949 -5.531,0.887 -1.679,-0.064 -6.204,2.322 -6.677,2.591 -0.474,0.269 -3.308,1.682 -3.982,2.494 -0.673,0.81 0.003,2.344 1.843,2.901 1.842,0.559 14.076,4.118 17.051,4.911 17.684,4.719 52.34,11.612 66.672,11.419 14.328,-0.192 17.887,-2.886 34.042,-5.192 6.674,-0.954 15.857,-2.351 24.616,-3.682 2.702,-0.411 5.742,-0.071 8.276,-0.453 2.818,-0.428 5.101,-1.571 7.488,-1.924 5.362,-0.794 9.336,-1.379 10.591,-1.443 5.579,-0.289 22.023,-0.385 24.812,-0.481 2.789,-0.096 1.058,-9.137 -10.001,-8.945 -11.06,0.194 -24.525,-5.578 -27.218,-5.673 -2.691,-0.097 -13.445,1.214 -20.772,-1.635 -8.655,-3.364 -20.327,-5.839 -36.256,-8.114 -16.156,-2.308 -32.83,-2.464 -49.432,1.732 -8.751,2.21 -16.238,2.002 -25.017,4.372 C 7.098,-5.316 -5.292,-1.823 -4.899,-0.238 -4.51,1.34 2.092,-0.642 0,0"
         style="fill:#000000;fill-opacity:1;fill-rule:nonzero;stroke:none"
         id="path698" />
    </g>
    <g
       id="g700"
       transform="matrix(1.25,0,0,-1.25,-141.98672,317.64172)"
       style="fill:#000000;fill-opacity:1">
      <path
         inkscape:connector-curvature="0"
         d="m 0,0 c 3.461,1.155 10.194,4.04 15.483,8.271 5.289,4.232 13.946,9.328 16.734,10.291 2.788,0.959 2.211,-0.481 2.02,-2.596 C 34.043,13.851 33.852,6.443 35.39,3.847 36.929,1.251 40.679,-1.922 42.026,-2.211 43.373,-2.5 33.755,-1.441 34.428,-2.885 35.101,-4.326 0,0 0,0"
         style="fill:#000000;fill-opacity:1;fill-rule:nonzero;stroke:none"
         id="path702" />
    </g>
    <g
       id="g704"
       transform="matrix(1.25,0,0,-1.25,-56.224353,331.36123)"
       style="fill:#000000;fill-opacity:1">
      <path
         inkscape:connector-curvature="0"
         d="m 0,0 c 2.743,1.139 8.05,3.913 12.145,7.821 4.093,3.908 9.744,8.654 11.953,9.598 2.208,0.945 2.918,-0.299 2.846,-2.163 -0.071,-1.867 0.064,-8.376 1.407,-10.602 1.341,-2.223 4.486,-4.877 5.581,-5.083 1.095,-0.203 -6.69,0.379 -6.091,-0.864 C 28.439,-2.535 0,0 0,0"
         style="fill:#000000;fill-opacity:1;fill-rule:nonzero;stroke:none"
         id="path706" />
    </g>
    <g
       id="g708"
       transform="matrix(1.25,0,0,-1.25,-43.772593,349.25547)"
       style="fill:#000000;fill-opacity:1">
      <path
         inkscape:connector-curvature="0"
         d="m 0,0 c 1.011,-0.506 3.899,-1.843 6.828,-3.849 3.765,-2.577 6.763,-5.285 8.56,-6.153 2.982,-1.443 4.904,0.48 5.577,0.865 0.674,0.384 -1.827,2.308 -2.595,3.654 -0.77,1.347 -2.982,2.885 -1.637,4.904 1.347,2.021 5.867,3.464 7.501,3.558 -3.57,0.33 -8.163,1.052 -12.131,0.268 C 5.602,1.966 0,0 0,0"
         style="fill:#000000;fill-opacity:1;fill-rule:nonzero;stroke:none"
         id="path710" />
    </g>
    <g
       id="g712"
       transform="matrix(1.25,0,0,-1.25,-177.21985,347.00935)"
       style="fill:#000000;fill-opacity:1">
      <path
         inkscape:connector-curvature="0"
         d="m 0,0 c 2.483,-4.014 7.683,-17.08 10.643,-20.382 2.96,-3.305 10.308,-7.779 12.345,-7.683 2.033,0.094 -2.061,5.868 -0.293,11.688 1.767,5.817 8.509,8.888 6.324,11.997 -2.186,3.111 -10.381,3.876 -15.724,3.626 C 7.952,-1.005 7.601,1.044 5.3,1.166 3,1.289 0,0 0,0"
         style="fill:#000000;fill-opacity:1;fill-rule:nonzero;stroke:none"
         id="path714" />
    </g>
    <g
       id="g716"
       transform="matrix(1.25,0,0,-1.25,-11.016223,335.9791)"
       style="fill:#000000;fill-opacity:1">
      <path
         inkscape:connector-curvature="0"
         d="m 0,0 c 5.872,3.071 28.363,16.863 40.319,20.24 11.954,3.374 18.577,3.124 20.366,2.811 1.787,-0.318 -0.233,-2.452 -2.716,-3.03 -2.483,-0.581 -3.362,-1.092 -3.378,-2.037 -0.018,-0.944 0.496,-5.049 -0.829,-5.214 -1.324,-0.166 -5.579,2.666 -6.127,2.733 -0.546,0.064 -0.098,-1.357 -0.033,-1.889 C 47.668,13.085 46.063,11.943 45.399,11.86 44.738,11.778 44.256,10.236 42.966,9.809 41.674,9.378 39.041,5.685 37.865,5.405 36.689,5.123 34.884,4.494 34.884,4.494 c 0,0 0.978,-0.283 0.63,-0.728 -0.348,-0.448 -10.952,-10.84 -11.352,-11.908 -0.402,-1.067 0.667,-2.937 1.2,-3.738 0.534,-0.8 1.468,-2.403 2.136,-2.935 0.668,-0.536 3.205,-2.94 4.139,-3.472 0.933,-0.533 3.739,-2.135 -1.202,-2.003 -2.741,0.072 -7.757,0.327 -12.682,4.14 -4.138,3.202 -9.442,7.101 -12.416,8.943 C -1.336,-3.068 0,0 0,0"
         style="fill:#000000;fill-opacity:1;fill-rule:nonzero;stroke:none"
         id="path718" />
    </g>
    <g
       id="g720"
       transform="matrix(1.25,0,0,-1.25,-81.520973,354.10647)"
       style="fill:#000000;fill-opacity:1">
      <path
         inkscape:connector-curvature="0"
         d="m 0,0 c 1.795,-2.308 5.235,-11.082 15.9,-12.052 2.821,-0.257 1.027,2.821 1.796,4.872 0.769,2.051 3.335,7.437 4.359,8.207 1.027,0.77 -5.128,1.795 -8.718,1.538 C 9.745,2.309 0,0 0,0"
         style="fill:#000000;fill-opacity:1;fill-rule:nonzero;stroke:none"
         id="path722" />
    </g>
  </g>
</svg>
